PathFileType	4	(X/Y/Z)	Patient3_R_AnkleIso_Processed.trc
DataRate	CameraRate	NumFrames	NumMarkers	Units	OrigDataRate	OrigDataStartFrame	OrigNumFrames
100.000000000000	100.000000000000	4	33	mm	100.000000000000	76	       301
Frame#	Time	L.Toe			R.Toe			R.Shoulder			L.Heel			Neck			R.Heel			L.Shank.Lateral			R.Shank.Lateral			L.Midfoot.Superior			L.Elbow			R.Midfoot.Lateral			R.Midfoot.Superior			L.Shoulder			R.Thigh.Lateral			R.Elbow			Sacral			L.Thigh.Superior			R.Patella			R.Wrist			R.Shank.Superior			L.Wrist			R.Shank.Inferior			R.Thigh.Superior			R.Thigh.Inferior			L.Asis			L.Shank.Inferior			L.Midfoot.Lateral			Sternum			L.Shank.Superior			R.Asis			L.Patella			L.Thigh.Lateral			L.Thigh.Inferior			
		X1	Y1	Z1	X2	Y2	Z2	X3	Y3	Z3	X4	Y4	Z4	X5	Y5	Z5	X6	Y6	Z6	X7	Y7	Z7	X8	Y8	Z8	X9	Y9	Z9	X10	Y10	Z10	X11	Y11	Z11	X12	Y12	Z12	X13	Y13	Z13	X14	Y14	Z14	X15	Y15	Z15	X16	Y16	Z16	X17	Y17	Z17	X18	Y18	Z18	X19	Y19	Z19	X20	Y20	Z20	X21	Y21	Z21	X22	Y22	Z22	X23	Y23	Z23	X24	Y24	Z24	X25	Y25	Z25	X26	Y26	Z26	X27	Y27	Z27	X28	Y28	Z28	X29	Y29	Z29	X30	Y30	Z30	X31	Y31	Z31	X32	Y32	Z32	X33	Y33	Z33	

76	1.250000000000	705.568741477691	42.303080994127	376.793503347111	1077.443787912985	141.780828037144	517.193336847631	471.191690250597	1447.760031762735	509.107976849936	414.845552686392	33.315556091597	427.081366039378	441.232883830484	1467.220938323647	360.363585085595	820.162520876115	138.693655400262	666.901013902165	481.283128613944	325.482313836643	294.261628781986	754.369008752380	428.696888655614	678.371176753476	585.976708816909	90.009122683280	390.352571599911	375.986833634472	1115.581714814687	97.797564267745	923.853936061475	120.310637588180	667.537099726282	977.678160648328	190.645938236190	594.157007876334	488.261056745007	1428.638044623776	218.899164605284	640.949243897853	723.543236035883	627.143464824041	549.590860018626	1140.099358758552	657.127459033612	416.908716062271	971.361127148600	383.086358308107	662.568919877039	737.516923020352	302.155125872127	781.854054033138	597.928823713970	576.088581388252	649.912383349665	1266.331621398616	465.552783134921	806.422007057646	493.556264163660	612.129376820219	549.432839945609	1000.854938625099	-55.186676587665	872.387926772875	329.572655051529	630.715605048721	695.384839778836	795.011313576767	558.670505110492	736.428519806027	689.944808323777	562.480827108605	614.130729596488	967.132892610963	277.648785158672	550.029759477900	230.037048917370	364.753390786850	490.474225542748	27.307920762296	359.394245569439	580.640748497102	1374.614725423902	378.610836181523	573.869762594809	381.860832218789	333.366915257301	560.409331664365	994.156152017818	533.484555165950	617.883069763566	490.186663202825	344.699062441235	563.387068706586	657.090030963971	257.711929215246	642.802115542882	608.213626533520	322.509164671418	
77	1.260000000000	705.569943027689	42.299159679004	376.789140418677	1077.304749597811	145.155100743520	513.983529704764	471.089524521845	1447.786127796233	509.228875655589	414.845873425672	33.313497288031	427.084473308433	441.123632804969	1467.245468559655	360.484673474867	821.904867176678	137.715452503606	666.817869018401	481.249005758901	325.490483322776	294.349597904377	755.100699147265	428.866436229661	678.064173077952	585.975038272302	90.007032871644	390.356351264374	375.944186307173	1115.611231025678	97.888009431608	925.764165149432	120.414757828741	665.964754896533	977.912442010503	192.101488167650	592.654640445333	488.155645579153	1428.682937926658	219.012911581642	641.262936795236	723.615350325878	627.025903212473	549.562366544143	1140.127685539529	657.227794453702	416.855530105047	971.380110268333	383.299865190957	662.468119499546	737.537586841673	302.213767141136	782.100655162018	598.079426692151	575.644960977032	649.852301306525	1266.395313026235	465.650207209288	806.900908588117	493.741387332733	611.589614332448	549.403300823498	1000.930167733691	-55.116820576922	872.971008868197	329.776115778473	630.008928655423	695.554597374639	795.129503439688	558.493765327518	736.639987421111	690.072759736605	562.175534665404	613.988578169161	967.155736786222	277.711689116836	550.014283106793	230.050215934636	364.811904185811	490.473756483935	27.310612538360	359.393289159166	580.540493996900	1374.662580847283	378.716865917798	573.837558082384	381.873846868329	333.437410931405	560.461186851469	994.216319472725	533.573011214489	617.813829916166	490.213193100030	344.771919735455	563.268564784522	657.110212532619	257.804062214309	642.715798661003	608.239891473241	322.575564380625	
78	1.270000000000	705.570871406019	42.295373873234	376.784614493479	1077.266649129939	148.655799563691	510.985994497735	470.985376792829	1447.812688989867	509.348280905671	414.846138649426	33.311153448965	427.087645659210	441.011610911832	1467.269846272130	360.603577462225	823.671614720378	136.674533142306	666.629019050054	481.212984780786	325.497449754759	294.439375332133	755.828046393393	429.029164224963	677.739915711675	585.973210858819	90.005144712594	390.360455502903	375.896909340198	1115.641511902490	97.972886040712	927.690706928537	120.568730955372	664.407420829293	978.158077860549	193.606570231270	591.215287179642	488.047499905107	1428.726812809025	219.124420873755	641.572427846298	723.677145744320	626.903815704234	549.533974010420	1140.157395582649	657.327951783163	416.797672266364	971.398475629508	383.519559773153	662.361472928284	737.558255461401	302.277897739420	782.341134300307	598.224684128404	575.189851142686	649.790727317757	1266.459034749852	465.744723411904	807.375777587962	493.921466519111	611.036656424366	549.371010042560	1001.006596354262	-55.050855482449	873.546955789939	329.975855054492	629.282911474392	695.719710459100	795.240655659294	558.312943640694	736.845607400990	690.193780022389	561.861704867745	613.840009834940	967.179273710766	277.775674068646	549.997072929326	230.063760888500	364.873990076434	490.473231730851	27.313256485309	359.392382985335	580.437781415925	1374.709793087819	378.819974510184	573.804407331042	381.888729146839	333.508410546322	560.511131616260	994.274472350911	533.663507488136	617.738011833972	490.241275218693	344.849675822250	563.144001176336	657.130825704371	257.899437930692	642.622615842963	608.265671824429	322.648421958914	
79	1.280000000000	705.571541773671	42.291828401056	376.779909269976	1077.335102477931	152.259661868103	508.221212388388	470.880050012156	1447.839343849519	509.466535254602	414.846374578512	33.308508089771	427.090900327837	440.897030709281	1467.293695228359	360.720815153490	825.455515560292	135.581703319350	666.332486225528	481.175217511622	325.503113899645	294.530234083058	756.548687337575	429.183933927063	677.397302930682	585.971282473095	90.003565167832	390.364788468775	375.844884744084	1115.671425518612	98.053209632819	929.625801132851	120.775623708043	662.876435378055	978.417405412157	195.151369109340	589.846583423991	487.936055385071	1428.768936176675	219.234032972880	641.875862914136	723.727466523421	626.777230052763	549.506969767472	1140.188059918351	657.427945397888	416.734546626354	971.416118416729	383.744114494050	662.249331024116	737.578922111553	302.347123544790	782.575817449770	598.365047691182	574.725091475805	649.727894819689	1266.521897884182	465.836030056811	807.846129351644	494.096389191098	610.472715820260	549.336031830320	1001.083584374188	-54.987835416553	874.115316280677	330.171814418677	628.540357561167	695.878948628636	795.344460276141	558.129401003785	737.044921899672	690.308014406960	561.540898764653	613.685492449915	967.203490673512	277.840853766245	549.978148121093	230.077557083642	364.939086388223	490.472635012505	27.315744343514	359.391593490125	580.332766644872	1374.755576673723	378.920115006760	573.770128823949	381.905591389230	333.579374222164	560.557895740659	994.329391271490	533.755869086189	617.655807886638	490.270743134352	344.931606305786	563.013960677042	657.151842284601	257.997288943819	642.522786283621	608.290745676164	322.727204374253	
